<svg id="Group_1212" data-name="Group 1212" xmlns="http://www.w3.org/2000/svg" width="60.306" height="57.793" viewBox="0 0 60.306 57.793">
  <path id="Path_39" data-name="Path 39" d="M30.153,0C46.806,0,60.306,12.937,60.306,28.9s-13.5,28.9-30.153,28.9S0,44.856,0,28.9,13.5,0,30.153,0Z" transform="translate(0 0)" fill="#302626"/>
  <g id="linked-in-logo-of-two-letters" transform="translate(21.128 17.175)">
    <g id="Group_12" data-name="Group 12" transform="translate(0 0)">
      <path id="Path_12" data-name="Path 12" d="M.778,194.013H3.891a.778.778,0,0,0,.778-.778V179.628a.778.778,0,0,0-.778-.778H.778a.778.778,0,0,0-.778.778v13.608A.778.778,0,0,0,.778,194.013Z" transform="translate(0 -172.138)" fill="#fff"/>
      <path id="Path_13" data-name="Path 13" d="M.778,28.236H3.891a.778.778,0,0,0,.778-.778V24.694a.778.778,0,0,0-.778-.778H.778A.778.778,0,0,0,0,24.694v2.765A.778.778,0,0,0,.778,28.236Z" transform="translate(0 -23.916)" fill="#fff"/>
      <path id="Path_14" data-name="Path 14" d="M196.455,171.622a4.734,4.734,0,0,0-1.936-1.421,7.009,7.009,0,0,0-2.825-.557,6.917,6.917,0,0,0-5.316,2.395c-.289.318-.5.248-.5-.181v-1.037a.778.778,0,0,0-.778-.778h-2.781a.778.778,0,0,0-.778.778v13.608a.778.778,0,0,0,.778.778h3.113a.778.778,0,0,0,.778-.778V179.7a15.224,15.224,0,0,1,.357-4.054,3.348,3.348,0,0,1,1.321-1.761,3.744,3.744,0,0,1,2.177-.665,2.777,2.777,0,0,1,1.62.465,2.593,2.593,0,0,1,.972,1.3,13.915,13.915,0,0,1,.3,3.7v5.746a.778.778,0,0,0,.778.778h3.113a.778.778,0,0,0,.778-.778v-7.706a14.594,14.594,0,0,0-.257-3.14A5.143,5.143,0,0,0,196.455,171.622Z" transform="translate(-173.679 -163.332)" fill="#fff"/>
    </g>
  </g>
</svg>
