<svg xmlns="http://www.w3.org/2000/svg" width="25.108" height="20.401" viewBox="0 0 25.108 20.401">
  <path id="twitter" d="M25.109,50.415a10.732,10.732,0,0,1-2.966.813,5.119,5.119,0,0,0,2.264-2.845,10.287,10.287,0,0,1-3.264,1.246,5.147,5.147,0,0,0-8.9,3.52,5.3,5.3,0,0,0,.119,1.174,14.57,14.57,0,0,1-10.61-5.384,5.149,5.149,0,0,0,1.582,6.88A5.083,5.083,0,0,1,1,55.184v.056A5.171,5.171,0,0,0,5.128,60.3a5.137,5.137,0,0,1-1.35.169A4.552,4.552,0,0,1,2.8,60.38a5.2,5.2,0,0,0,4.81,3.586,10.343,10.343,0,0,1-6.382,2.2A9.638,9.638,0,0,1,0,66.091,14.492,14.492,0,0,0,7.9,68.4,14.55,14.55,0,0,0,22.548,53.753c0-.228-.008-.447-.019-.665A10.269,10.269,0,0,0,25.109,50.415Z" transform="translate(0 -48)" fill="#fff"/>
</svg>
